<svg xmlns="http://www.w3.org/2000/svg" version="1.1" xmlns:xlink="http://www.w3.org/1999/xlink" width="200" height="200"><svg xmlns="http://www.w3.org/2000/svg" version="1.1" xmlns:xlink="http://www.w3.org/1999/xlink" viewBox="0 0 200 200"><rect width="200" height="200" fill="url('#gradient')"></rect><defs><linearGradient id="SvgjsLinearGradient1001" gradientTransform="rotate(45 0.5 0.5)"><stop offset="0%" stop-color="#dee90b"></stop><stop offset="100%" stop-color="#d9e241"></stop></linearGradient></defs><g><g fill="#1b3855" transform="matrix(9.394495412844037,0,0,9.394495412844037,83.84271664903798,149.88726615905762)" stroke="#0e5278" stroke-width="0.2"><path d="M1.16-10.57L4.46-10.57L4.46 0.36Q4.45 2.24 3.39 3.25Q2.32 4.27 0.42 4.27L0.42 4.27Q-0.40 4.27-1.13 4.10L-1.13 4.10L-1.13 1.61Q-0.57 1.70-0.21 1.70L-0.21 1.70Q1.16 1.70 1.16 0.34L1.16 0.34L1.16-10.57ZM0.92-13.29L0.92-13.29Q0.92-13.99 1.43-14.44Q1.93-14.89 2.74-14.89Q3.55-14.89 4.06-14.44Q4.57-13.99 4.57-13.29Q4.57-12.59 4.06-12.14Q3.55-11.69 2.74-11.69Q1.93-11.69 1.43-12.14Q0.92-12.59 0.92-13.29Z"></path></g></g></svg><style>@media (prefers-color-scheme: light) { :root { filter: none; } }
@media (prefers-color-scheme: dark) { :root { filter: none; } }
</style></svg>